# xmcd
#
# Track frame offsets:
# 150
# 17223
# 37071
# 60144
# 76842
# 83415
# 102063
# 116136
# 135009
# 157707
# 184680
# 201378
# 222351
# 231174
# 253422
# 270045
# 292893
# 314841
# 336789
#
# Disc length: 4679 seconds
#
#
# Revision: 0
# Processed by: cddbd v1.5.2PL0 Copyright (c) Steve Scherf et al.
# Submitted via: FreeRIP 2.951 
#
DISCID=f9124513
DTITLE=James Taylor - One Man Band
DYEAR=2007
DGENRE=Blues
TTITLE0=Something in the Way She Moves
TTITLE1=Never Die Young
TTITLE2=The Frozen Man
TTITLE3=Mean Old Man
TTITLE4=School Song
TTITLE5=Country Road
TTITLE6=Slap Leather
TTITLE7=My Traveling Star
TTITLE8=You've Got a Friend
TTITLE9=Steamroller Blues
TTITLE10=Secret O' Life
TTITLE11=Line 'Em Up
TTITLE12=Chili Dog
TTITLE13=Shower the People
TTITLE14=Sweet Baby James
TTITLE15=Carolina on My Mind
TTITLE16=Fire and Rain
TTITLE17=Copperline
TTITLE18=You Can Close Your Eyes
EXTD=
EXTT0=
EXTT1=
EXTT2=
EXTT3=
EXTT4=
EXTT5=
EXTT6=
EXTT7=
EXTT8=
EXTT9=
EXTT10=
EXTT11=
EXTT12=
EXTT13=
EXTT14=
EXTT15=
EXTT16=
EXTT17=
EXTT18=
PLAYORDER=
